<?xml version="1.0" encoding="utf-8"?>
<!-- Generator: Adobe Illustrator 21.0.0, SVG Export Plug-In . SVG Version: 6.00 Build 0)  -->
<svg version="1.1" id="Layer_1" xmlns="http://www.w3.org/2000/svg" xmlns:xlink="http://www.w3.org/1999/xlink" x="0px" y="0px"
	 viewBox="0 0 515.5 294.4" style="enable-background:new 0 0 515.5 294.4;" xml:space="preserve">
<style type="text/css">
	.st0{fill:#A7A9AC;}
	.st1{fill:#939598;stroke:#000000;stroke-width:0.6213;stroke-linecap:round;stroke-miterlimit:10;}
	.st2{stroke:#000000;stroke-width:0.462;stroke-linecap:round;stroke-miterlimit:10;}
	.st3{fill:#FFFFFF;stroke:#000000;stroke-width:0.462;stroke-linecap:round;stroke-miterlimit:10;}
	.st4{fill:#939598;stroke:#000000;stroke-width:0.3729;stroke-linecap:round;stroke-miterlimit:10;}
	.st5{fill:#FFFFFF;stroke:#000000;stroke-width:0.3287;stroke-linecap:round;stroke-miterlimit:10;}
	.st6{stroke:#000000;stroke-width:0.4472;stroke-linecap:round;stroke-miterlimit:10;}
	.st7{fill:#A7A9AC;stroke:#000000;stroke-width:1.0208;stroke-miterlimit:10;}
	.st8{fill:#FFFFFF;stroke:#000000;stroke-width:0.8358;stroke-miterlimit:10;}
	.st9{stroke:#000000;stroke-width:1.0208;stroke-miterlimit:10;}
	.st10{fill:#FFFFFF;stroke:#000000;stroke-width:0.8166;stroke-linecap:round;stroke-miterlimit:10;}
</style>
<circle cx="406.8" cy="149.6" r="0.6"/>
<path class="st0" d="M271.2,282.3c0,0-9.3-5-11.3-7c-2-2-3.9-7.3-3.9-7.3l-3.2-35.8l-33.2,1.1l-33.2-1.1l-3.2,35.8
	c0,0-1.8,5.2-3.9,7.3c-2,2-11.3,7-11.3,7s-2.9,3.4,1.6,3.4c3.7,0,35.6,0,47.7,0c0,0,1.8,0,4.7,0c12.1,0,44,0,47.7,0
	C274.1,285.7,271.2,282.3,271.2,282.3z"/>
<path class="st1" d="M380.8,236.9H57.4c-5.8,0-10.5-4.7-10.5-10.5V10.8c0-5.8,4.7-10.5,10.5-10.5h323.5c5.8,0,10.5,4.7,10.5,10.5
	v215.5C391.4,232.1,386.6,236.9,380.8,236.9z"/>
<path class="st2" d="M380.6,236.9H57.3c-5.8,0-10.4-4.7-10.4-10.4v-19.9h344.5v19.6C391.4,232,386.5,236.9,380.6,236.9z"/>
<rect x="59.9" y="15.9" class="st3" width="318.7" height="176.9"/>
<g>
	<path class="st4" d="M500,289.6H282.4c-4.4,0-7.9-3.6-7.9-7.9V157.1c0-4.4,3.6-7.9,7.9-7.9H500c4.4,0,7.9,3.6,7.9,7.9v124.5
		C508,286,504.4,289.6,500,289.6z"/>
	<rect x="283.1" y="160.5" class="st5" width="216.6" height="117.7"/>
	<path class="st6" d="M515.3,285v5.3c0,0-5.5,3.9-8.9,3.9s-46.8,0-46.8,0h-64.3h-69.1h-45.9c0,0-10.7-1.6-13-3.9c0-2.3,0-5.3,0-5.3
		H515.3z"/>
</g>
<g>
	<path class="st7" d="M74.1,291.3H8.3c-4.3,0-7.8-3.5-7.8-7.8V159.9c0-4.3,3.5-7.8,7.8-7.8h65.8c4.3,0,7.8,3.5,7.8,7.8v123.7
		C81.9,287.8,78.4,291.3,74.1,291.3z"/>
	<rect x="4.7" y="166.1" class="st8" width="72" height="105.4"/>
	<circle class="st9" cx="41.2" cy="281" r="5.4"/>
	<line class="st10" x1="35.5" y1="159" x2="46.8" y2="159"/>
</g>
</svg>
