<?xml version="1.0" encoding="utf-8"?>
<!-- Generator: Adobe Illustrator 21.0.0, SVG Export Plug-In . SVG Version: 6.00 Build 0)  -->
<svg version="1.1" id="Layer_1" xmlns="http://www.w3.org/2000/svg" xmlns:xlink="http://www.w3.org/1999/xlink" x="0px" y="0px"
	 viewBox="0 0 423 279.5" style="enable-background:new 0 0 423 279.5;" xml:space="preserve">
<style type="text/css">
	.st0{fill:#939598;}
	.st1{fill:#FFFFFF;stroke:#000000;stroke-width:0.3287;stroke-linecap:round;stroke-miterlimit:10;}
	.st2{fill:#BCBEC0;}
	.st3{fill:#A7A9AC;}
	.st4{fill:#FFFFFF;}
	.st5{stroke:#000000;stroke-width:0.7786;stroke-miterlimit:10;}
	.st6{fill:#FFFFFF;stroke:#000000;stroke-width:0.6228;stroke-linecap:round;stroke-miterlimit:10;}
	.st7{fill:none;stroke:#FFFFFF;stroke-linecap:round;stroke-miterlimit:10;stroke-dasharray:12,12;}
</style>
<path class="st0" d="M407.5,212H189.9c-4.4,0-7.9-3.6-7.9-7.9V79.5c0-4.4,3.6-7.9,7.9-7.9h217.7c4.4,0,7.9,3.6,7.9,7.9v124.5
	C415.5,208.5,411.9,212,407.5,212z"/>
<rect x="190.6" y="83" class="st1" width="216.6" height="117.7"/>
<path class="st2" d="M422.8,207.5v5.3c0,0-5.5,3.9-8.9,3.9s-46.8,0-46.8,0h-64.3h-69.1h-45.9c0,0-10.7-1.6-13-3.9c0-2.3,0-5.3,0-5.3
	H422.8z"/>
<path class="st3" d="M56.5,194.9H6.3c-3.3,0-5.9-2.7-5.9-5.9V94.7c0-3.3,2.7-5.9,5.9-5.9h50.2c3.3,0,5.9,2.7,5.9,5.9V189
	C62.4,192.2,59.8,194.9,56.5,194.9z"/>
<rect x="3.6" y="99.4" class="st4" width="54.9" height="80.4"/>
<circle class="st5" cx="31.4" cy="187.1" r="4.1"/>
<line class="st6" x1="27.1" y1="94" x2="35.7" y2="94"/>
<g>
	<g>
		<path class="st7" d="M31.4,83c0,0,80.4-169.9,212.1-21.9"/>
		<g>
			<path class="st4" d="M247.5,65.6c-2.7-1.4-6.4-2.8-9.3-3.1l4.7-1.9l2.4-4.5C245.3,59,246.4,62.8,247.5,65.6z"/>
		</g>
	</g>
</g>
<g>
	<g>
		<path class="st7" d="M267.5,226.6c0,0-133.7,126.8-236.9-14.2"/>
		<g>
			<path class="st4" d="M27.1,207.5c2.5,1.7,6,3.5,8.9,4.2l-4.9,1.4l-2.9,4.2C28.5,214.3,27.9,210.4,27.1,207.5z"/>
		</g>
	</g>
</g>
</svg>
